<svg width="384" height="512" viewBox="0 0 384 512" fill="none" xmlns="http://www.w3.org/2000/svg">
<path d="M352 195C352 283.366 280.366 355 192 355C103.634 355 32 283.366 32 195C32 106.634 103.634 35 192 35C280.366 35 352 106.634 352 195Z" fill="#165DFC"/>
<path d="M188.5 37C148.32 37 109.785 52.9616 81.3733 81.3733C52.9616 109.785 37 148.32 37 188.5C37 228.68 52.9616 267.215 81.3733 295.627C109.785 324.038 148.32 340 188.5 340C228.68 340 267.215 324.038 295.627 295.627C324.038 267.215 340 228.68 340 188.5C340 148.32 324.038 109.785 295.627 81.3733C267.215 52.9616 228.68 37 188.5 37ZM188.5 321.062C170.466 321.09 152.619 317.416 136.062 310.268L205.051 232.662C206.585 230.926 207.433 228.691 207.438 226.375V197.969C207.438 195.457 206.44 193.049 204.664 191.273C202.888 189.498 200.48 188.5 197.969 188.5C164.544 188.5 129.263 153.75 128.923 153.39C128.042 152.511 126.996 151.815 125.846 151.34C124.696 150.866 123.463 150.623 122.219 150.625H84.3438C81.8325 150.625 79.4241 151.623 77.6483 153.398C75.8726 155.174 74.875 157.582 74.875 160.094V216.906C74.8751 218.663 75.364 220.386 76.287 221.881C77.2101 223.376 78.5309 224.584 80.1018 225.371L112.75 241.695V297.296C95.2027 285.093 80.8701 268.824 70.9767 249.878C61.0834 230.932 55.9234 209.873 55.9375 188.5C55.9099 168.848 60.2706 149.439 68.7014 131.688H103.281C105.8 131.688 108.205 130.684 109.985 128.923L147.86 91.0476C148.739 90.1667 149.435 89.1212 149.91 87.9709C150.384 86.8206 150.627 85.588 150.625 84.3438V61.4294C162.917 57.7735 175.676 55.9235 188.5 55.9375C209.331 55.9375 229.045 60.7476 246.581 69.3074C240.235 74.6207 235.135 81.265 231.643 88.7693C228.151 96.2736 226.353 104.454 226.375 112.731C226.375 127.9 232.283 142.179 243.021 152.897C248.623 158.509 255.341 162.884 262.739 165.738C270.137 168.592 278.052 169.863 285.971 169.468C290.062 184.788 297.429 224.708 283.491 279.646C283.362 280.155 283.28 280.675 283.244 281.199C270.916 293.829 256.182 303.862 239.913 310.705C223.644 317.548 206.169 321.064 188.519 321.044L188.5 321.062Z" fill="#10210F"/>
<path d="M253.5 374L192 512L130.5 374C92.1667 361 60.8333 337.833 36.5 304.5C12.1667 271.167 0 233.667 0 192C0 157.333 8.58333 125.25 25.75 95.75C42.9167 66.25 66.25 42.9167 95.75 25.75C125.25 8.58333 157.333 0 192 0C226.667 0 258.75 8.58333 288.25 25.75C317.75 42.9167 341.083 66.25 358.25 95.75C375.417 125.25 384 157.333 384 192C384 233.667 371.833 271.167 347.5 304.5C323.167 337.833 291.833 361 253.5 374ZM192 64C156.667 64 126.5 76.5 101.5 101.5C76.5 126.5 64 156.667 64 192C64 227.333 76.5 257.5 101.5 282.5C126.5 307.5 156.667 320 192 320C227.333 320 257.5 307.5 282.5 282.5C307.5 257.5 320 227.333 320 192C320 156.667 307.5 126.5 282.5 101.5C257.5 76.5 227.333 64 192 64Z" fill="#0F0F21"/>
<path d="M329.109 76.2585C329.109 94.3787 314.42 109.068 296.299 109.068C278.179 109.068 263.49 94.3787 263.49 76.2585C263.49 58.1383 278.179 43.449 296.299 43.449C314.42 43.449 329.109 58.1383 329.109 76.2585Z" fill="#DFD349"/>
<path d="M359.211 11.1863L318.985 26.6516L319.461 20.5855C319.668 17.9355 316.811 16.1344 314.493 17.4594L277.972 38.618C264.991 46.1332 257 59.9836 257 74.9727C257 98.1809 275.819 117 299.027 117C314.016 117 327.888 109.009 335.403 96.0277L356.541 59.5074C357.886 57.2094 356.085 54.3316 353.414 54.5387L347.348 55.0148L362.814 14.7887C362.938 14.4781 363 14.1262 363 13.7949C363 12.2422 361.758 11 360.205 11C359.853 11 359.522 11.0621 359.211 11.1863ZM296.75 50.75C303.778 50.75 310.519 53.542 315.488 58.5117C320.458 63.4814 323.25 70.2218 323.25 77.25C323.25 84.2782 320.458 91.0186 315.488 95.9883C310.519 100.958 303.778 103.75 296.75 103.75C289.722 103.75 282.981 100.958 278.012 95.9883C273.042 91.0186 270.25 84.2782 270.25 77.25C270.25 70.2218 273.042 63.4814 278.012 58.5117C282.981 53.542 289.722 50.75 296.75 50.75ZM296.75 70.625C296.75 68.8679 296.052 67.1829 294.81 65.9404C293.567 64.698 291.882 64 290.125 64C288.368 64 286.683 64.698 285.44 65.9404C284.198 67.1829 283.5 68.8679 283.5 70.625C283.5 72.3821 284.198 74.0671 285.44 75.3096C286.683 76.552 288.368 77.25 290.125 77.25C291.882 77.25 293.567 76.552 294.81 75.3096C296.052 74.0671 296.75 72.3821 296.75 70.625ZM300.062 90.5C300.941 90.5 301.784 90.151 302.405 89.5298C303.026 88.9086 303.375 88.066 303.375 87.1875C303.375 86.309 303.026 85.4664 302.405 84.8452C301.784 84.224 300.941 83.875 300.062 83.875C299.184 83.875 298.341 84.224 297.72 84.8452C297.099 85.4664 296.75 86.309 296.75 87.1875C296.75 88.066 297.099 88.9086 297.72 89.5298C298.341 90.151 299.184 90.5 300.062 90.5Z" fill="#8C1717"/>
</svg>
